<?xml version="1.0" encoding="utf-8"?>
<!-- Generator: Adobe Illustrator 25.2.0, SVG Export Plug-In . SVG Version: 6.00 Build 0)  -->
<svg version="1.1" id="Camada_1" xmlns="http://www.w3.org/2000/svg" xmlns:xlink="http://www.w3.org/1999/xlink" x="0px" y="0px"
	 viewBox="0 0 500 500" style="enable-background:new 0 0 500 500;" xml:space="preserve">
<style type="text/css">
	.st0{fill:#5F1C30;}
	.st1{fill:#560F25;}
	.st2{fill:#5B1229;}
	.st3{fill:#551629;}
	.st4{fill:#5C162D;}
	.st5{fill:#CF4D67;}
	.st6{fill:#67C3B0;}
	.st7{fill:#FE8F65;}
	.st8{fill:#F3EEF0;}
	.st9{fill:#E8DEE1;}
	.st10{fill:#FBF9FA;}
	.st11{fill:#5C0F26;}
	.st12{fill:#570A22;}
	.st13{fill:#5A1229;}
	.st14{fill:#D2C0C6;}
</style>
<path class="st0" d="M357.3,86.7c20.6,0.1,41.1,0.6,61.7,0.3c8.9-0.2,11.5,3.1,11.5,11.8c-0.2,120.6-0.2,241.3,0,361.9
	c0,8.3-2.6,10.7-10.9,10.7c-94.2-0.3-188.3-0.3-282.5,0c-8.6,0-10.4-2.8-10.4-10.8c0.2-120.6,0.3-241.3-0.1-361.9
	c0-10.1,3.7-11.6,12.4-11.7c20.5-0.2,41.1,1.6,61.6-1c-0.1,3.4-0.1,6.8-0.2,10.3c-18.2-0.1-36.4,0.1-54.6-0.4
	c-7.3-0.2-9.5,2.3-9.4,9.5c0.2,115.5,0.2,231,0,346.5c0,8.1,2.9,9.9,10.3,9.9c88.2-0.2,176.4-0.2,264.6,0c7.9,0,10-2.5,10-10.2
	c-0.2-115.1-0.2-230.2,0-345.3c0-7.6-2.4-10.6-10.2-10.4c-17.8,0.5-35.6,0.3-53.4,0.3C357.5,93,357.4,89.8,357.3,86.7z"/>
<path class="st1" d="M27.2,257.4c0-43.9,0-87.8,0-131.6c0-14.3,1.6-15.9,15.5-16c9.9,0,19.8,0.4,29.6-0.1
	c10.9-0.5,14.5,4.5,14.5,14.9c-0.2,88.1-0.2,176.3,0,264.5c0,10-5.2,17.9-8.6,26.5c-5,12.8-10.8,25.3-16.4,37.8
	c-3.1,6.9-7.5,7.4-10.3,0.2c-11.5-29.3-27.8-56.6-25-90.7C29.4,328,27.1,292.6,27.2,257.4z M77.4,279.2
	C77.4,279.2,77.4,279.2,77.4,279.2c0-27.7,0-55.3,0-83c0-29.3,0-28.9-29.6-29.4c-9.7-0.2-11.7,3.1-11.6,12.1
	c0.4,60.5,0.2,120.9,0.2,181.4c0,30.1,0,29.6,30.2,30.1c9.6,0.1,10.9-3.4,10.9-11.5C77.2,345.6,77.4,312.4,77.4,279.2z M57.2,119
	c-3.1,0-6.3,0-9.4,0c-5.8,0-11.5-1.4-11.6,8.2c-0.1,9.6,4.7,9.9,11.7,9.5c6.7-0.3,13.4-0.4,20,0c6.8,0.5,9.7-1.4,9.8-9
	c0-7.7-3.1-9.5-9.8-8.9C64.3,119.3,60.7,119,57.2,119z M38.9,400c2.3,6,4.6,10.5,5.9,15.3c3.1,11.3,13.4,9.5,18.8,6.9
	c6.4-3.1,8-12.7,9.7-20.2c0.6-2.5-3.6-1.9-5.7-2C58.6,399.9,49.6,400,38.9,400z M56,157.5C56,157.5,56,157.5,56,157.5
	c5.5,0,11,0.1,16.4,0c2.3,0,5,0.2,4.8-3.4c-0.2-2.4-1.9-3.3-4-3.3c-11,0-21.9,0-32.9,0c-2.3,0-3.6,1.4-3.6,3.6c0,2.7,2.1,2.9,4,2.9
	C45.8,157.5,50.9,157.5,56,157.5z"/>
<path class="st2" d="M200.4,96.2c0.1-3.4,0.1-6.8,0.2-10.3c0-16.7,2.3-18.9,19.1-18.9c3.2,0,6.3-0.2,9.5,0c5.1,0.4,7.5-0.5,8-6.8
	c1.4-18,6.8-22.6,24.6-22.8c11.9-0.1,23.7-0.2,35.6,0c15.4,0.3,21.6,6.2,22,21.4c0.1,6,1.4,9,7.9,8.1c2.7-0.4,5.5-0.1,8.3,0
	c18.6,0,20.3,1.6,21.7,19.6c0.1,3.2,0.3,6.3,0.4,9.5c-0.2,10.6-0.4,21.3-0.5,31.9c-0.2,9.5-4.8,14.8-14.5,14.8
	c-42.6,0-85.2,0-127.9,0c-9.7,0-14.3-5-14.2-14.8C200.6,117.5,200.4,106.9,200.4,96.2z M278.1,131.1c12.3,0,24.5,0.3,36.8-0.1
	c10.5-0.4,24.2,4.7,30.8-2.2c6.5-6.8,1.8-20.3,2-30.9C348,76,347.8,76,326.1,76c-15.7,0-16.1,0-15.9-15.2c0.1-10.8-4.5-15-15-14.6
	c-11.9,0.4-23.7,0.1-35.6,0.1c-8.5,0-13.1,3.8-13.4,12.8c-0.6,17-0.8,16.9-17.4,16.9c-3.6,0-7.2,0.3-10.7-0.1
	c-6.9-0.8-8.9,2.3-8.6,8.9c0.4,12.3,0.6,24.6,0,36.8c-0.5,8.4,3.2,9.8,10.4,9.7C239.3,130.9,258.7,131.1,278.1,131.1z"/>
<path class="st3" d="M457.4,299.9c-8.5-0.1-15.4-7.3-15.5-16.1c-0.1-8.8,6.8-15.9,15.5-16.1c8.9-0.2,16.7,7.7,16.4,16.6
	C473.5,292.3,465.4,300,457.4,299.9z M464.4,285.5c0.3-5.7-1.9-8.6-5.8-9.1c-4.6-0.5-7.8,2.5-8.2,6.7c-0.4,4.5,2.4,7.2,7.3,7.2
	C462,290.4,464.2,288.1,464.4,285.5z"/>
<path class="st0" d="M85.3,500c-9.8,0.1-14.2-4.7-14.5-11.4c-0.3-7.4,4.4-12.8,12.3-12.9c7.9,0,12.7,5.4,12.4,12.7
	C95.3,495.1,91.1,500.1,85.3,500z"/>
<path class="st0" d="M407,56.6c-1.9-5-13.8-4.6-9.3-11.6c4.2-6.5,10.1,1.5,14.9,3.7c3.6,1.6,9.1,2.4,9.3,7.8
	c0.2,5.4-5.1,6.9-8.7,8.2c-5.2,1.8-10.5,11.5-15.5,3.9C393.1,61.7,405.2,62,407,56.6z"/>
<path class="st0" d="M141.5,25.9c-0.5,5,7.1,12.9-1.8,14.3c-7.2,1.2-5-8.6-7.1-13.4C135.3,24.1,138.2,23.3,141.5,25.9z"/>
<path class="st4" d="M139.1,15c0.7-0.3,1.5-0.5,2.2-0.8c4.6-1.6,11.6-5.3,13.4,0.1c2.5,7.8-6.5,6.2-10.9,8.2
	C138.8,22.1,138.5,18.9,139.1,15z"/>
<path class="st0" d="M129.3,26.7c-4.7-1.6-12.2,7.2-13.7-1.2c-1.6-8.9,8.9-5.4,13.7-8C132.1,20.7,132.4,23.7,129.3,26.7z"/>
<path class="st3" d="M129.4,14.9c-1.2-4.4-4.2-8.6-1.7-13.3c1-2,3.7-1.9,5.1-0.6c4.1,3.8,4.4,8.8,3.6,13.9
	C134,14.9,131.7,14.9,129.4,14.9z"/>
<path class="st5" d="M200.4,96.2c0.1,10.6,0.3,21.3,0.2,32c-0.1,9.8,4.5,14.8,14.2,14.8c42.6,0,85.2,0,127.9,0
	c9.7,0,14.3-5.3,14.5-14.8c0.2-10.6,0.4-21.3,0.5-31.9c17.8-0.1,35.6,0.1,53.4-0.3c7.8-0.2,10.3,2.7,10.2,10.4
	c-0.2,115.1-0.2,230.2,0,345.3c0,7.7-2.1,10.2-10,10.2c-88.2-0.2-176.4-0.2-264.6,0c-7.5,0-10.4-1.8-10.3-9.9
	c0.2-115.5,0.2-231,0-346.5c0-7.2,2.1-9.7,9.4-9.5C164,96.4,182.2,96.1,200.4,96.2z M278.4,321.4c35.2,0,70.3-0.2,105.5,0.1
	c8.8,0.1,14.9-2.1,15.6-11.8c0.6-8.9-5.3-14.1-16.3-14.1c-69.5,0-139.1,0-208.6-0.1c-9.7,0-16.5,2.8-16.6,13.6
	c0,10.7,7,12.4,16,12.4C208.8,321.2,243.6,321.4,278.4,321.4z M277.7,373.5c35.1,0,70.3-0.2,105.4,0.1c9.6,0.1,15.9-3.5,15.9-13.1
	c0.1-9.8-6.6-13-16-13c-69.5,0.2-139,0.2-208.5,0c-9,0-16.2,2.1-16.4,12.4c-0.2,10.8,6.7,13.6,16.5,13.6
	C209,373.3,243.4,373.5,277.7,373.5z M248.5,273.8c25.3,0,50.6-0.1,75.9,0.1c8.3,0.1,13.8-2.1,14.2-11.6c0.5-9.7-4.4-14-13.4-14
	c-51-0.1-102-0.1-153.1,0c-9,0-14.3,5-14,14c0.3,8.7,5.7,11.8,14.4,11.7C197.9,273.6,223.2,273.8,248.5,273.8z M230,202.4
	c-19.3,0-38.7,0.3-58-0.1c-8.6-0.2-14.2,2.5-13.9,11.6c0.2,8.1,4.2,12.7,13.4,12.6c38.2-0.3,76.5-0.4,114.7,0
	c9.5,0.1,13.3-5,13.4-12.7c0.2-7.6-4.3-11.8-12.9-11.6C267.8,202.7,248.9,202.4,230,202.4z"/>
<path class="st6" d="M77.4,279.2c0,33.2-0.2,66.4,0.1,99.6c0.1,8.1-1.3,11.7-10.9,11.5c-30.2-0.4-30.2,0-30.2-30.1
	c0-60.5,0.2-120.9-0.2-181.4c0-9,1.9-12.2,11.6-12.1c29.5,0.5,29.6,0.1,29.6,29.4C77.4,223.9,77.4,251.6,77.4,279.2
	C77.4,279.2,77.4,279.2,77.4,279.2z"/>
<path class="st7" d="M57.2,119c3.5,0,7.1,0.3,10.6,0c6.7-0.7,9.9,1.1,9.8,8.9c0,7.6-2.9,9.5-9.8,9c-6.7-0.5-13.4-0.4-20,0
	c-7,0.3-11.8,0.1-11.7-9.5c0.1-9.7,5.8-8.2,11.6-8.2C50.9,119,54.1,119,57.2,119z"/>
<path class="st8" d="M38.9,400c10.7,0,19.6-0.1,28.7,0c2.1,0,6.3-0.5,5.7,2c-1.7,7.4-3.3,17-9.7,20.2c-5.4,2.6-15.7,4.4-18.8-6.9
	C43.5,410.5,41.3,406,38.9,400z"/>
<path class="st9" d="M56,157.5c-5.1,0-10.2,0-15.3,0c-1.9,0-4.1-0.2-4-2.9c0-2.3,1.3-3.6,3.6-3.6c11,0,21.9,0,32.9,0
	c2.2,0,3.8,0.9,4,3.3c0.3,3.6-2.5,3.3-4.8,3.4C66.9,157.6,61.4,157.6,56,157.5C56,157.5,56,157.5,56,157.5z"/>
<path class="st10" d="M278.1,131.1c-19.4,0-38.8-0.3-58.2,0.1c-7.3,0.1-10.9-1.3-10.4-9.7c0.7-12.2,0.5-24.5,0-36.8
	c-0.2-6.6,1.8-9.6,8.6-8.9c3.5,0.4,7.1,0.1,10.7,0.1c16.6,0,16.8,0,17.4-16.9c0.3-9.1,4.9-12.8,13.4-12.8c11.9,0,23.8,0.3,35.6-0.1
	c10.5-0.4,15.1,3.8,15,14.6C310,76,310.5,76,326.1,76c21.7,0,21.9,0,21.6,21.9c-0.1,10.6,4.5,24.1-2,30.9
	c-6.6,6.9-20.2,1.9-30.8,2.2C302.7,131.4,290.4,131.1,278.1,131.1z M296.2,89.8c0-11-6.7-17.9-17.5-18c-10-0.1-18.4,7.7-18.7,17.4
	c-0.4,10.1,8.3,18.7,18.6,18.6C289.4,107.6,296.2,100.6,296.2,89.8z"/>
<path class="st11" d="M278.4,321.4c-34.8,0-69.5-0.1-104.3,0.1c-9.1,0.1-16.1-1.6-16-12.4c0-10.9,6.8-13.6,16.6-13.6
	c69.5,0.2,139.1,0.1,208.6,0.1c10.9,0,16.9,5.2,16.3,14.1c-0.7,9.6-6.8,11.9-15.6,11.8C348.7,321.2,313.5,321.4,278.4,321.4z
	 M168,307.9c0,0.7,0,1.4,0,2.1c73.4,0,146.9,0,220.3,0c0-0.7,0-1.4,0-2.1C314.8,307.9,241.4,307.9,168,307.9z"/>
<path class="st12" d="M277.7,373.5c-34.4,0-68.7-0.2-103.1,0.1c-9.8,0.1-16.7-2.8-16.5-13.6c0.2-10.3,7.4-12.4,16.4-12.4
	c69.5,0.1,139,0.2,208.5,0c9.4,0,16.1,3.2,16,13c-0.1,9.6-6.3,13.2-15.9,13.1C348,373.3,312.9,373.5,277.7,373.5z M277.8,357
	c-32.8,0-65.6,0-98.5,0c-2.8,0-5.5,0-8.3,0.2c-1.7,0.1-3.2,0.7-3.4,2.6c-0.3,2.5,1.2,3.5,3.4,3.7c2.4,0.2,4.7,0.2,7.1,0.2
	c66.4,0,132.9,0,199.3,0c2.8,0,5.6,0.2,8.3-0.3c1.2-0.2,2.1-1.9,3.2-3c-1.1-1-2-2.8-3.2-2.9c-3.1-0.5-6.3-0.3-9.5-0.3
	C343.5,357,310.7,357,277.8,357z"/>
<path class="st13" d="M248.5,273.8c-25.3,0-50.6-0.2-75.9,0.1c-8.7,0.1-14.1-3-14.4-11.7c-0.3-9,5.1-14,14-14
	c51-0.1,102-0.1,153.1,0c9,0,13.9,4.3,13.4,14c-0.5,9.5-5.9,11.7-14.2,11.6C299.1,273.7,273.8,273.8,248.5,273.8z M167.6,261.9
	c1.7,2.5,3.8,2.3,5.7,2.3c49.5,0,99,0,148.4,0c2.4,0,6.7,1.5,6.7-2.4c0-4.9-4.8-2.8-7.4-2.8c-48.7-0.1-97.4-0.1-146.1,0
	C172.5,258.9,169.4,257.8,167.6,261.9z"/>
<path class="st4" d="M230,202.4c18.9,0,37.9,0.3,56.8-0.1c8.6-0.2,13.1,4,12.9,11.6c-0.2,7.7-3.9,12.8-13.4,12.7
	c-38.2-0.4-76.5-0.4-114.7,0c-9.3,0.1-13.2-4.4-13.4-12.6c-0.3-9.2,5.4-11.8,13.9-11.6C191.3,202.6,210.6,202.4,230,202.4z
	 M228.9,216.8c17.4,0,34.7,0.1,52.1-0.1c2.6,0,7.4,1.9,7.3-3c0-3.8-4.3-2.5-6.7-2.5c-35.5-0.1-71.1-0.1-106.6,0
	c-2.5,0-6.7-1.1-6.7,2.5c-0.1,4.9,4.7,3,7.3,3C193.3,216.9,211.1,216.8,228.9,216.8z"/>
<path class="st13" d="M296.2,89.8c0,10.9-6.8,17.9-17.5,18c-10.4,0.1-19-8.5-18.6-18.6c0.4-9.7,8.7-17.5,18.7-17.4
	C289.4,71.8,296.2,78.7,296.2,89.8z M287,90.1c-0.3-4.9-2.6-8.2-7.7-8.6c-5-0.4-8.5,2.3-8.9,7.2c-0.5,5.4,2.4,9,8.1,9.2
	C283.7,98.2,286,94.9,287,90.1z"/>
<path class="st10" d="M168,307.9c73.4,0,146.9,0,220.3,0c0,0.7,0,1.4,0,2.1c-73.4,0-146.9,0-220.3,0C168,309.3,168,308.6,168,307.9z
	"/>
<path class="st14" d="M277.8,357c32.8,0,65.6,0,98.5,0c3.2,0,6.4-0.2,9.5,0.3c1.2,0.2,2.2,1.9,3.2,2.9c-1,1-2,2.7-3.2,3
	c-2.7,0.5-5.5,0.3-8.3,0.3c-66.4,0-132.9,0-199.3,0c-2.4,0-4.8,0-7.1-0.2c-2.2-0.1-3.7-1.2-3.4-3.7c0.2-1.9,1.7-2.5,3.4-2.6
	c2.8-0.1,5.5-0.2,8.3-0.2C212.2,357,245,357,277.8,357z"/>
<path class="st8" d="M167.6,261.9c1.8-4,4.9-3,7.3-3c48.7-0.1,97.4-0.1,146.1,0c2.6,0,7.4-2.1,7.4,2.8c0,3.9-4.3,2.4-6.7,2.4
	c-49.5,0.1-99,0.1-148.4,0C171.4,264.2,169.4,264.4,167.6,261.9z"/>
<path class="st8" d="M228.9,216.8c-17.8,0-35.5,0.1-53.3-0.1c-2.6,0-7.4,1.9-7.3-3c0-3.6,4.3-2.5,6.7-2.5c35.5-0.1,71.1-0.1,106.6,0
	c2.4,0,6.6-1.3,6.7,2.5c0.1,4.9-4.7,3-7.3,3C263.6,216.9,246.2,216.8,228.9,216.8z"/>
<path class="st7" d="M287,90.1c-0.9,4.7-3.3,8.1-8.5,7.9c-5.7-0.2-8.6-3.8-8.1-9.2c0.4-5,3.9-7.6,8.9-7.2
	C284.3,81.9,286.6,85.2,287,90.1z"/>
<g id="Camada_2_1_">
</g>
</svg>
