<?xml version="1.0" encoding="utf-8"?>
<!-- Generator: Adobe Illustrator 25.2.0, SVG Export Plug-In . SVG Version: 6.00 Build 0)  -->
<svg version="1.1" id="Camada_1" xmlns="http://www.w3.org/2000/svg" xmlns:xlink="http://www.w3.org/1999/xlink" x="0px" y="0px"
	 viewBox="0 0 500 500" style="enable-background:new 0 0 500 500;" xml:space="preserve">
<style type="text/css">
	.st0{fill:#561428;}
	.st1{fill:#520E23;}
	.st2{fill:#58172B;}
	.st3{fill:#5D1E31;}
	.st4{fill:#CE4D67;}
	.st5{fill:#FAD77D;}
	.st6{fill:#FBFAFA;}
	.st7{fill:#CC4C66;}
	.st8{fill:#5B162B;}
	.st9{fill:#5A1327;}
	.st10{fill:#591526;}
	.st11{fill:#F7F4F5;}
	.st12{fill:#D75551;}
	.st13{fill:#F78A62;}
	.st14{fill:#FB8D64;}
</style>
<path class="st0" d="M232.7,443.4c-51.5,0-103.1,0-154.6,0c-25.6,0-42.9-17.3-43-43C35,353.6,35.2,306.8,35,260
	c-0.2-28.1,18.5-47.5,51.6-44.5c4,0.4,4.3,2.9,4.3,6c-0.1,12.4,0.1,24.8-0.1,37.2c-0.1,4.2,0.7,5.8,5.4,5.7
	c11.8-0.1,11.8,0.2,11.8-11.4c0-66.3,0-132.7,0-199c0-9.7,0-9.7,9.3-9.7c52.7,0,105.5,0,158.2-0.2c4.9,0,8.5,1.3,12,4.9
	c22,22.5,44.2,44.9,66.5,67.2c2.9,2.9,3.5,5.8,3.5,9.5c-0.1,43.7,0.3,87.4-0.3,131c-0.1,9.3,4.9,7,10,7.7c7.1,1,7.6-2.4,7.4-8
	c-0.4-11.4-0.1-22.9-0.1-34.4c0-3,0-5.6,3.9-6.5c20.8-4.8,43,7.5,49.8,27.6c1.5,4.5,2.3,9.2,2.3,14c-0.1,48.2,0,96.4,0,144.6
	c0,23.8-17.7,41.5-41.5,41.5C336.7,443.4,284.7,443.4,232.7,443.4z M232.8,435.9c51.3,0,102.6,0.1,153.9,0c22.2,0,36.2-14,36.2-36.3
	c0.1-39.9-0.1-79.7,0.2-119.5c0-5.9-1.5-7.7-7.6-7.7c-34.1,0.3-68.2,0.1-102.2,0.1c-76.8,0-153.6,0-230.4,0
	c-11.2,0-22.4,0.1-33.6-0.1c-4-0.1-6.1,0.8-6.1,5.5c0.2,42.7,0.1,85.4,0.2,128.1c0,6.9,3,12.9,7.5,18.1c7.8,9.2,18.1,11.7,29.5,11.7
	C131.1,435.9,181.9,435.9,232.8,435.9z M139.6,169.7c0,29.3,0.1,58.7-0.1,88c-0.1,5.4,1.4,6.7,6.7,6.7c57.5-0.2,115-0.2,172.4,0
	c6.1,0,7.3-1.7,7.4-7.5c0.5-37.9,1.3-75.8,2.2-113.7c0.1-3.5-0.9-5.8-3.2-8.2c-17.9-18.2-35.8-36.3-53.5-54.7
	c-2.8-2.9-5.6-3.8-9.4-3.8c-38.6,0.1-77.3,0.2-115.9-0.1c-5.3,0-6.8,1.2-6.7,6.6C139.7,112,139.6,140.9,139.6,169.7z M115.4,158
	c0,33.2,0,66.4,0,99.5c0,2.1-1.1,5.2,0.8,6c4.4,1.8,9.5,1.2,14.1,0.5c3.9-0.6,1.8-4.8,1.9-7.2c0.1-59.9,0.2-119.8,0-179.8
	c0-6.4,1.5-8.9,8.4-8.8c41.3,0.3,82.6,0.2,123.9,0.1c3.7,0,6.8,0.5,9.7,3.4c19.4,20.1,38.9,40,58.5,59.9c2.1,2.1,3.3,4.3,3.2,7.5
	c-0.4,12.2-0.5,24.3-0.8,36.5c-0.6,27.9-1.1,55.8-1.8,83.7c-0.1,3.7,0.8,5.3,4.7,4.9c2.1-0.2,4.3-0.3,6.4,0c4.8,0.7,5.9-1.3,5.8-5.9
	c-0.2-43.4-0.2-86.9,0-130.3c0-3.7-1.2-6.2-3.7-8.7c-21.1-21.1-42-42.3-63-63.5c-2.5-2.5-4.9-3.8-8.7-3.8
	c-51.1,0.1-102.2,0.2-153.2,0c-5.1,0-6.3,1.5-6.3,6.4C115.5,91.6,115.4,124.8,115.4,158z M402.4,264.3c5.5,0,10.9,0,16.4,0
	c2.5,0,4-0.7,4.1-3.6c1-22.3-14.3-38.4-36.8-37.8c-2.9,0.1-4.4,1.3-4.4,4.3c0,10.9,0.1,21.9,0,32.9c0,3.1,1.2,4.3,4.2,4.2
	C391.4,264.2,396.9,264.3,402.4,264.3z M83.6,243.8c0-5-0.2-10,0.1-15c0.2-4.2-0.9-5.8-5.5-5.9c-21.3-0.4-36.8,16-35,37
	c0.3,3.4,1.5,4.5,4.8,4.5c10.2-0.1,20.5-0.1,30.7,0c3.6,0.1,5.2-1.1,5-4.9C83.4,254.3,83.6,249,83.6,243.8z"/>
<path class="st0" d="M486.2,291.6c-7.2-0.1-13.1-5.9-13-13.1c0.1-7.2,5.9-12.9,13.2-12.9c7.5,0,12.8,5.4,12.8,13.1
	C499.1,286.3,493.7,291.7,486.2,291.6z M486.8,272.8c-3.8,0.1-6,2.1-6.2,5.6c-0.1,3.5,2,5.8,5.7,5.8c3.2,0,5.3-1.7,5.6-5.1
	C492.1,275.4,490.1,273.5,486.8,272.8z"/>
<path class="st1" d="M351.4,480.6c-6.2,0-12.4,0-18.6,0c-2.7,0-5.7,0.2-5.8-3.5c-0.2-3.8,2.8-3.8,5.5-3.8c12.9,0,25.7,0,38.6,0
	c2.8,0,5.9,0,5.9,3.4c0,3.9-3.3,3.9-6.3,3.8C364.2,480.6,357.8,480.6,351.4,480.6z"/>
<path class="st0" d="M111.2,460.2c5.8,0.1,9.7,4.1,9.8,9.8c0.1,5.5-5,10.7-10.2,10.5c-5.1-0.2-9.8-5.1-9.9-10.3
	C100.7,464.4,105.1,460.1,111.2,460.2z"/>
<path class="st2" d="M409.5,70.1c-2.6-1.7-5.1-3.3-7.6-5c-1.9-1.3-2.4-3.1-1.2-4.9c1.1-1.6,2.9-2.4,4.9-1.1
	c4.7,2.7,9.5,5.2,14.1,8.1c2.8,1.8,2.7,4.6-0.1,6.4c-4.5,3-9.3,5.5-14,8.2c-2,1.1-3.7,0.5-4.9-1.3c-1.2-1.9-0.6-3.6,1.1-4.9
	C404.2,73.7,407.5,73.1,409.5,70.1z"/>
<path class="st2" d="M377.3,463c3.1,0,6.2-0.1,9.3,0c2.1,0.1,3.6,1,3.6,3.5c0,2.4-1.5,3.7-3.5,3.8c-6.7,0.2-13.4,0.2-20,0
	c-2-0.1-3.7-1.4-3.7-3.7c-0.1-2.8,1.9-3.6,4.3-3.7C370.6,462.9,374,462.9,377.3,463C377.3,462.9,377.3,463,377.3,463z"/>
<path class="st2" d="M87.8,32.2c3.1-0.9,6.2-2,9.4-2.7c2-0.4,4.4-1,5.3,1.9c0.8,2.7-0.1,4.2-3,5.3c-6.9,2.6-9.1,1.9-11.5-4.8
	C87.9,32,87.8,32.2,87.8,32.2z"/>
<path class="st2" d="M82.8,33.5c-1.1,2.7,2.1,5,0.6,7.7l0.1-0.1c-3.1,0.8-6.1,1.8-9.3,2.5c-2.4,0.5-4.2-0.4-4.8-2.9
	c-0.5-2.2,0.7-3.6,2.8-4.2c3.6-1,7.2-2,10.8-2.9C83.1,33.6,82.8,33.5,82.8,33.5z"/>
<path class="st3" d="M83.4,41.2c2.4-0.5,4.9-4.1,7.2-0.4c2,3.1,3.2,6.8,2.1,10.5c-0.3,1.2-1.7,2.4-3.3,2.2c-1.4-0.2-2.6-1.1-3.1-2.6
	c-1-3.3-1.9-6.6-2.9-9.9C83.5,41.1,83.4,41.2,83.4,41.2z"/>
<path class="st3" d="M82.8,33.5l0.3,0.1c-2.8-2.6-3.3-6-3.9-9.5c-0.3-2.1,0.4-4,2.4-4.6c2.4-0.7,4.2,0.8,4.8,3.1
	c0.8,3.1,2.4,6.2,1.5,9.6L88,32C86.3,32.7,84.8,34.1,82.8,33.5z"/>
<path class="st2" d="M7.7,232.7c0.5,1.9,1.1,3.9,1.6,5.8c-2.4,1.2-5.5,3.8-7.4,0.4C-1.7,232.3,4.2,233.4,7.7,232.7z"/>
<path class="st3" d="M10.8,238.6c2.3-0.4,4.5-0.7,6.8-1.1c-0.7,2.2,2.8,5.1-0.6,6.7C10.7,247.2,10.4,243.2,10.8,238.6z"/>
<path class="st3" d="M15.2,230c-2.5,0.5-5,1-7.6,1.5c-1.5-3.7-2.9-7.6,3.4-7.7C15.4,223.7,12.9,228.5,15.2,230z"/>
<path class="st3" d="M17.7,236.2c-1.8-1.8-1.6-4.1-1.9-6.3c2.6-0.2,6-4.1,7.5,1.2C24.8,236.1,20.4,235.3,17.7,236.2z"/>
<path class="st4" d="M232.8,435.9c-50.8,0-101.6,0-152.5,0c-11.4,0-21.7-2.5-29.5-11.7c-4.4-5.3-7.4-11.2-7.5-18.1
	c-0.1-42.7-0.1-85.4-0.2-128.1c0-4.7,2.1-5.5,6.1-5.5c11.2,0.2,22.4,0.1,33.6,0.1c76.8,0,153.6,0,230.4,0c34.1,0,68.2,0.1,102.2-0.1
	c6,0,7.6,1.8,7.6,7.7c-0.2,39.9-0.1,79.7-0.2,119.5c0,22.3-14,36.2-36.2,36.3C335.4,436,284.1,435.9,232.8,435.9z M233.3,361.9
	c-15.7,0-31.5,0-47.2,0c-31.5,0-63,0.1-94.5-0.1c-6.3-0.1-8.6,2.1-8.1,8.3c0.4,4.7,0.1,9.5,0.1,14.3c0,10.2,0,10.2,10.3,10.2
	c92.6,0,185.1,0,277.7,0c1.4,0,2.9-0.1,4.3,0c4.3,0.3,6-1.8,5.9-6c-0.1-6-0.4-12,0.1-17.9c0.6-6.9-2-9-8.9-9
	C326.4,362.1,279.8,361.9,233.3,361.9z M87.9,288.7c-7.4,0-14.8,0.1-22.1,0c-4.4-0.1-6.7,1.5-6.6,6.2c0.2,6.9,0.1,13.8,0,20.7
	c-0.1,4.3,1.9,6,6.1,5.9c14.7-0.1,29.5-0.1,44.3,0c4.3,0,5.9-2,5.8-6.2c-0.1-6.9-0.1-13.8,0-20.7c0.1-4.3-1.8-6-6-5.9
	C102.2,288.8,95.1,288.7,87.9,288.7z"/>
<path class="st5" d="M139.6,169.7c0-28.9,0.2-57.7-0.1-86.6c-0.1-5.5,1.5-6.7,6.7-6.6c38.6,0.2,77.3,0.2,115.9,0.1
	c3.8,0,6.6,0.9,9.4,3.8c17.7,18.4,35.6,36.5,53.5,54.7c2.3,2.4,3.3,4.7,3.2,8.2c-0.9,37.9-1.7,75.8-2.2,113.7
	c-0.1,5.8-1.3,7.6-7.4,7.5c-57.5-0.2-115-0.2-172.4,0c-5.3,0-6.8-1.3-6.7-6.7C139.7,228.4,139.6,199.1,139.6,169.7z M219,194.1
	c20.5,0,41-0.2,61.5,0.1c6.4,0.1,8.6-2.1,8.1-8.3c-0.4-4.3-0.4-8.6,0-12.9c0.7-6.9-1.9-9.1-8.9-9.1c-35.8,0.3-71.5,0.1-107.3,0.1
	c-22.3,0-22.1,0-22.1,22.2c0,5.9,1.8,8,7.8,7.9C178.5,193.9,198.7,194.1,219,194.1z M219.7,120.5c-16.2,0-32.4,0-48.7,0
	c-20.6,0-20.2,0-20.6,20.7c-0.2,7.6,2.6,9.1,9.5,9.1c35.8-0.3,71.6-0.1,107.4-0.1c21.4,0,21.1,0,21.4-21.4c0.1-7-2.6-8.4-8.8-8.3
	C259.8,120.7,239.7,120.5,219.7,120.5z"/>
<path class="st6" d="M115.4,158c0-33.2,0.1-66.4-0.1-99.5c0-4.9,1.2-6.4,6.3-6.4c51.1,0.2,102.2,0.2,153.2,0c3.7,0,6.2,1.3,8.7,3.8
	c20.9,21.3,41.9,42.4,63,63.5c2.5,2.5,3.7,5,3.7,8.7c-0.1,43.4-0.2,86.9,0,130.3c0,4.6-1.1,6.6-5.8,5.9c-2.1-0.3-4.3-0.3-6.4,0
	c-3.9,0.5-4.8-1.2-4.7-4.9c0.7-27.9,1.3-55.8,1.8-83.7c0.3-12.2,0.4-24.3,0.8-36.5c0.1-3.2-1.1-5.4-3.2-7.5
	c-19.5-19.9-39.1-39.9-58.5-59.9c-2.8-2.9-5.9-3.5-9.7-3.4c-41.3,0.1-82.6,0.2-123.9-0.1c-6.8,0-8.4,2.4-8.4,8.8
	c0.2,59.9,0.1,119.8,0,179.8c0,2.4,2,6.6-1.9,7.2c-4.6,0.8-9.6,1.3-14.1-0.5c-1.9-0.8-0.8-4-0.8-6
	C115.4,224.3,115.4,191.2,115.4,158z"/>
<path class="st7" d="M402.4,264.3c-5.5,0-10.9-0.1-16.4,0c-3,0.1-4.3-1.2-4.2-4.2c0.1-10.9,0.1-21.9,0-32.9c0-3,1.5-4.2,4.4-4.3
	c22.5-0.7,37.8,15.5,36.8,37.8c-0.1,2.9-1.6,3.6-4.1,3.6C413.3,264.3,407.8,264.3,402.4,264.3z"/>
<path class="st4" d="M83.6,243.8c0,5.2-0.2,10.5,0.1,15.7c0.2,3.8-1.4,4.9-5,4.9c-10.2-0.2-20.5-0.1-30.7,0c-3.2,0-4.5-1-4.8-4.5
	c-1.8-21,13.8-37.4,35-37c4.6,0.1,5.7,1.7,5.5,5.9C83.4,233.8,83.6,238.8,83.6,243.8z"/>
<path class="st8" d="M233.3,361.9c46.5,0,93,0.1,139.6-0.1c6.9,0,9.5,2,8.9,9c-0.5,5.9-0.2,11.9-0.1,17.9c0.1,4.2-1.5,6.3-5.9,6
	c-1.4-0.1-2.9,0-4.3,0c-92.6,0-185.1,0-277.7,0c-10.3,0-10.3,0-10.3-10.2c0-4.8,0.3-9.6-0.1-14.3c-0.5-6.2,1.8-8.4,8.1-8.3
	c31.5,0.3,63,0.1,94.5,0.1C201.8,361.9,217.6,361.9,233.3,361.9z M231.9,387c45.1,0,90.2,0,135.3,0c2.1,0,5.2,1,6.1-0.8
	c2.3-4.3,1.2-9.3,0.7-13.9c-0.4-3.7-4.2-2.1-6.5-2.1c-89.7-0.1-179.4,0-269.1-0.3c-7.7,0-7.4,3.3-7.6,8.8c-0.2,6.1,0.9,8.5,8,8.5
	C143.1,386.8,187.5,387,231.9,387z"/>
<path class="st9" d="M87.9,288.7c7.1,0,14.3,0.1,21.4,0c4.2-0.1,6.1,1.7,6,5.9c-0.1,6.9-0.1,13.8,0,20.7c0.1,4.1-1.5,6.2-5.8,6.2
	c-14.7-0.1-29.5-0.1-44.3,0c-4.1,0-6.1-1.7-6.1-5.9c0.1-6.9,0.2-13.8,0-20.7c-0.1-4.7,2.2-6.3,6.6-6.2
	C73.2,288.8,80.5,288.7,87.9,288.7z M87.2,313.1c5.2,0,10.5-0.2,15.7,0c7.3,0.3,4.6-5.2,4.8-8.6c0.3-3.5,1.4-7.9-5-7.7
	c-10.2,0.3-20.5,0.3-30.8,0c-7.7-0.2-4.8,5.4-5.2,9c-0.4,3.9-0.7,7.8,5.5,7.3C77.1,312.8,82.2,313.1,87.2,313.1z"/>
<path class="st10" d="M219,194.1c-20.3,0-40.5-0.2-60.8,0.1c-6,0.1-7.8-2-7.8-7.9c-0.1-22.2-0.2-22.2,22.1-22.2
	c35.8,0,71.5,0.2,107.3-0.1c6.9-0.1,9.6,2.1,8.9,9.1c-0.4,4.2-0.4,8.6,0,12.9c0.5,6.2-1.7,8.4-8.1,8.3
	C260,193.9,239.5,194.1,219,194.1z M219,186.6c18.8,0,37.7-0.2,56.5,0.1c6,0.1,5.6-3.3,5.7-7.3c0-4.1,0.3-7.2-5.7-7.2
	c-37.2,0.2-74.4,0.2-111.6,0c-5.7,0-6.1,2.5-5.9,6.9c0.2,4.1-0.7,7.8,5.9,7.7C182.2,186.3,200.6,186.6,219,186.6z"/>
<path class="st1" d="M219.7,120.5c20,0,40.1,0.2,60.1-0.1c6.2-0.1,8.9,1.3,8.8,8.3c-0.3,21.4,0,21.4-21.4,21.4
	c-35.8,0-71.6-0.2-107.4,0.1c-6.9,0.1-9.7-1.5-9.5-9.1c0.4-20.7,0.1-20.7,20.6-20.7C187.2,120.5,203.5,120.5,219.7,120.5z
	 M218.9,142.5c18.6,0,37.2-0.2,55.7,0.1c5.8,0.1,6.8-2,6.5-7c-0.3-4.2,0.4-7.6-6-7.5c-37.2,0.3-74.3,0.3-111.5,0c-6,0-5.7,2.9-5.7,7
	c0.1,4.1-0.7,7.7,5.9,7.5C182.2,142.2,200.6,142.5,218.9,142.5z"/>
<path class="st11" d="M231.9,387c-44.4,0-88.7-0.2-133.1,0.2c-7,0.1-8.2-2.4-8-8.5c0.2-5.5-0.1-8.9,7.6-8.8
	c89.7,0.3,179.4,0.2,269.1,0.3c2.3,0,6.1-1.6,6.5,2.1c0.5,4.6,1.6,9.6-0.7,13.9c-0.9,1.8-4,0.8-6.1,0.8C322,387,277,387,231.9,387z"
	/>
<path class="st12" d="M87.2,313.1c-5,0-10.1-0.3-15,0.1c-6.2,0.5-5.9-3.4-5.5-7.3c0.4-3.6-2.5-9.2,5.2-9c10.3,0.3,20.5,0.3,30.8,0
	c6.5-0.2,5.3,4.2,5,7.7c-0.3,3.4,2.5,8.8-4.8,8.6C97.7,312.9,92.5,313.1,87.2,313.1z"/>
<path class="st13" d="M219,186.6c-18.4,0-36.7-0.3-55.1,0.2c-6.6,0.2-5.7-3.6-5.9-7.7c-0.2-4.4,0.2-6.9,5.9-6.9
	c37.2,0.3,74.4,0.3,111.6,0c6,0,5.7,3.1,5.7,7.2c0,4,0.3,7.4-5.7,7.3C256.6,186.4,237.8,186.6,219,186.6z"/>
<path class="st14" d="M218.9,142.5c-18.3,0-36.7-0.3-55,0.2c-6.6,0.2-5.8-3.4-5.9-7.5c-0.1-4.1-0.3-7.1,5.7-7
	c37.2,0.3,74.3,0.3,111.5,0c6.4-0.1,5.8,3.3,6,7.5c0.3,5-0.8,7.2-6.5,7C256.1,142.2,237.5,142.5,218.9,142.5z"/>
</svg>
