<?xml version="1.0" encoding="utf-8"?>
<!-- Generator: Adobe Illustrator 25.2.0, SVG Export Plug-In . SVG Version: 6.00 Build 0)  -->
<svg version="1.1" id="Camada_1" xmlns="http://www.w3.org/2000/svg" xmlns:xlink="http://www.w3.org/1999/xlink" x="0px" y="0px"
	 viewBox="0 0 500 500" style="enable-background:new 0 0 500 500;" xml:space="preserve">
<style type="text/css">
	.st0{fill:#59172B;}
	.st1{fill:#5A1A2E;}
	.st2{fill:#531024;}
	.st3{fill:#67C1AF;}
	.st4{fill:#FBFAFA;}
	.st5{fill:#FA8D63;}
	.st6{fill:#FCFBFB;}
	.st7{fill:#CD4D66;}
	.st8{fill:#F68A62;}
	.st9{fill:#F5F1F2;}
	.st10{fill:#EBE4E6;}
	.st11{fill:#552434;}
	.st12{fill:#552E3C;}
	.st13{fill:#56303D;}
</style>
<g>
	
		<image style="overflow:visible;opacity:0.5;" width="377" height="501" xlink:href="C873A471.png"  transform="matrix(1 0 0 1 63 1)">
	</image>
	<g>
		<g>
			<g>
				<g>
					<path class="st0" d="M334.3,170.2c-9.5-0.3-19-0.1-28.5,0c-4,0.1-6-0.5-4.6-5.5c2-6.9,2.9-14,4.3-21c2.8-14.4,8.3-28.8,7.8-43
						c-0.6-16.6-6.1-33.1-9.9-49.6c-1.1-5-4.2-7.1-7.7-1.7c-14.4,21.7-33.4,40.9-35.4,69.4c-0.7,10.8-2.3,22.4-8.8,33.4
						c-0.9-10.7-0.9-20.3-2.6-29.5c-1.6-8.7,0.4-18-3.7-26.1C238,82.1,229.8,68,222,53.7c-1.1-2.1-2.3-4-5-3.9
						c-3.2,0.1-3.1,2.8-3.8,4.9c-4.3,12.9-8.4,26-12.9,38.8c-2.5,7-2.6,14.1-1.8,21.2c1.7,15.9,3.7,31.8,5.2,47.7
						c0.2,2.5,3,7-2.6,7.7c-5,0.6-4.3-3.6-5-6.6c-7.7-32.9-15.5-65.8-23-98.7c-1.8-8-6.4-10-13.6-8.4c-8.3,1.9-16.4,4.1-24.7,5.7
						c-8.2,1.6-10.9,6.2-9.2,14c2.3,10.5,4.7,20.9,7.1,31.4c4.7,20.7,9.5,41.3,14.3,62.3c-14.9,1.5-28.7-1.3-42.3,1.6
						c-12.3,2.7-21.1,12.4-22.3,24.1c-1.2,12.3,5,24.1,16.7,28.2c6.5,2.3,7.3,5.5,7.3,11.3c-0.2,56-0.1,111.9-0.1,167.9
						c0,22.8,10.8,33.7,33.5,33.7c55.3,0.1,110.6,0.1,165.9,0c24,0,34-10,34-33.8c0-56,0-111.9,0.1-167.9c0-3.9-1.4-7.9,4.6-10.2
						c15.5-5.8,21.7-17,19-31.9C361,179.6,349.7,170.7,334.3,170.2z M285.4,77.4c0.1-0.1,0.1-0.2,0.2-0.2c3.3-4.1,14.4-1.9,16.4,3.1
						c0.1,0.3,0.1,0.6,0.2,1c2.2,7.2,3.2,11,1.8,12.6c-1.4,1.6-5.2,1.1-12.5-0.4c-1.9-0.4-3.8-0.8-5.7-1.1c-2.9-0.5-5.8-1-8.7-1.6
						c1.4-4.9,4.6-8.4,7.4-12C284.7,78.3,285.1,77.9,285.4,77.4z M261.4,152.3c3.1-15.3,6.7-30.5,9.2-45.9c1.2-7.3,4.7-8.5,10.7-6.9
						c1.3,0.3,2.5,0.9,3.7,1.2c14.3,3.2,18.8,4.2,18.7,11.4c0,3.3-1,7.8-2.5,14.4c-1.9,8.9-3.5,17.9-5.3,26.8
						c-2.9,14.6-3.3,16.4-14.6,16.6c-1.6,0-3.5,0-5.6,0c-0.6,0-1.1,0-1.6,0c-1.1,0-2.1,0-3,0c-8.8-0.1-11.7-0.8-11.7-5.7
						C259.5,161.6,260.3,157.8,261.4,152.3z M223.3,78.4c8.4,0.4,10.8,9.9,10.8,14.6c0.1,8.2-9.2,0.7-12.5,4.7
						c-5-1.6-11.2,3.4-13.3-2.7c-0.1-0.2-0.1-0.4-0.2-0.7c-0.2-0.7-0.2-1.4-0.2-2.1C208.2,85.7,216,78.1,223.3,78.4z M213.6,105.6
						c6.4-0.7,12.9-1.4,19.3-2.2c1.4-0.2,2.6-0.1,3.5,0.2c2,0.6,2.9,2.5,3.2,5.7c1.6,17.2,3.4,34.3,5.6,51.3
						c0.9,7.1-0.9,10.6-8.7,9.5c-2.9-0.4-5.9-0.1-8.8-0.1c-15.8,0-15.8,0-17.5-16c-1.4-12.9-2.3-25.9-4-38.8
						C205.3,108.8,207.8,106.2,213.6,105.6z M133.6,79.5c-0.5-4.2-2.8-9.1,4.6-10.2c1.8-0.3,3.7-0.6,5.5-0.9c3.4-0.6,6.8-1.5,10-2.5
						c0.8-0.3,1.6-0.5,2.4-0.8c8.4-3,10.6,0.8,10.5,7.5c0.3,1.3,0.4,2.3,0.3,3.1c-0.3,2.2-2.1,3.1-4.5,3.6c-0.3,0.1-0.5,0.1-0.8,0.2
						c-6.7,1.3-13.4,2.5-19.9,4.3c-1.4,0.4-2.7,0.7-3.8,0.7C135.6,84.5,134,83.3,133.6,79.5z M138.6,99.7c-1-2,0.9-3,2.3-3.3
						c9-2.3,18.1-4.5,27.2-6.7c0.2,0,0.4-0.1,0.5-0.1c1-0.1,1.7,0.4,2.2,1.3c0.1,0.1,0.2,0.3,0.2,0.5c0.3,0.8,0.3,1.4,0.2,1.9
						c-0.3,0.9-1.2,1.5-2.1,1.7c-9.1,2.1-18.2,4-28.2,6.2C140.5,100.9,139,100.6,138.6,99.7z M142.3,116c-1.6-5.9,0.5-7.8,5.5-8.6
						c0.1,0,0.3,0,0.4-0.1c1.1-0.2,2.1-0.3,3.2-0.4c0.4-0.1,0.8-0.1,1.2-0.2c6.8-1.4,11.5-2.4,14.8-2.4c7.3,0,8.2,4.6,11.2,19.4
						c2.4,12.1,4.7,24.3,8.3,36.1c1.3,4.4,1.4,7.2,0,8.8c-1.3,1.6-4.1,2-8.3,1.5c-2.6-0.3-5.2,0-7.8,0c-12.9-0.3-15.1,1.4-16.9-4
						c-0.8-2.4-1.5-6.1-2.9-12C148,141.3,145.8,128.5,142.3,116z M332,388.4L332,388.4c-0.6,5.4-0.1,11-0.1,16.5c0,0,0,0.1,0,0.2
						c-0.1,16.5-7.4,23.9-23.9,23.9c-50.3,0-100.7,0-151,0c-3.6,0-7.2,0-10.8,0.1c-1.8,0-3.6,0-5.4,0c-1.8,0-3.6,0-5.4-0.1
						c-2.4-0.1-4.7-0.4-6.8-1.1c-1.4-0.4-2.7-0.9-3.9-1.6c-0.6-0.3-1.2-0.7-1.8-1c-5.7-3.7-9.1-10-9.1-17.9c0-0.3,0-0.7,0-1
						c0-0.2,0-0.4,0-0.6c0-0.1,0-0.2,0-0.3c-0.4-8.4-3.2-18.3,1.6-23.6c0.9-1,2-1.7,3.3-2.1c0.9-0.3,1.8-0.5,2.8-0.6s2-0.1,3.1-0.1
						s2.2,0.1,3.3,0.2c1.7,0.2,3.5,0.4,5.2,0.6c2.3,0.3,4.6,0.5,6.7,0.5c27.8-0.2,55.5-0.1,83.3-0.1c25,0,50,0.1,75,0
						c8.3,0,16.7-0.1,25-0.2l0,0l0,0C329.7,379.9,332.8,381.1,332,388.4z M332,267.9c0.2,5.4-1.2,7.4-7,7.3l0,0l0,0
						c-68-0.2-136.1-0.2-204.1,0c-5.4,0-7.5-1.3-7.2-7.1c0.4-11.1,0.5-22.2,0-33.3c-0.3-6.4,1.5-8.2,8-8.2l0,0l0,0
						c16.2,0.2,32.4,0.2,48.5,0.2c0.8,0,1.6,0,2.5,0c17,0,34,0,51,0c9.6,0,19.3,0,28.9,0c23.7,0,47.4,0,71.2-0.1l0,0l0,0l0,0
						c2.7,0,4.7,0.2,6.1,1c1.7,1,2.4,3.1,2.2,6.8C331.5,245.7,331.7,256.8,332,267.9z M322.6,372.2L322.6,372.2
						C322.5,372.2,322.5,372.2,322.6,372.2c-8.4-0.1-16.7-0.1-25-0.2c-8.3,0-16.7,0-25,0c-16.7,0-33.4,0-50,0c-16.7,0-33.4,0-50-0.1
						c-16.7,0-33.4,0-50,0.2l0,0l0,0c-6.8,0.1-8.9-1.7-8.7-8.7c0.4-23.9,0.3-47.7,0-71.6c0-3.4,0.4-5.7,1.9-7
						c0.1-0.1,0.3-0.2,0.4-0.3l0.1-0.1c1.2-0.7,2.9-1.1,5.4-1.1h0.1l0,0l0,0c33.7,0.1,67.4,0.2,101,0.2c4.2,0,8.5,0,12.7,0
						c17.3,0,34.6,0,51.9-0.1c12.2,0,24.3,0,36.5-0.1l0,0l0,0c6.3,0,8.5,1.7,8.4,8.2c-0.3,23.9-0.5,47.7,0.1,71.6
						C332.4,371.1,329.4,372.3,322.6,372.2z M333.5,218.8c-18.3,0-36.6,0-54.9,0s-36.6,0-54.9,0c0,0,0,0,0,0.1
						c-18.5,0-36.9,0-55.4,0s-36.9,0-55.4,0c-13.6,0-22.7-8.1-22.8-20.2c-0.1-12.1,8.7-20.6,22.4-20.6c36.9-0.1,73.9-0.1,110.8-0.1
						s73.9,0,110.8,0.1c13.5,0,22.8,8.9,22.6,20.7C356.4,210.6,347.1,218.8,333.5,218.8z"/>
					<path class="st1" d="M396,244.3c-6.9,0.2-13.1,6.6-12.9,13.4c0.2,7,6.4,12.7,13.6,12.7c7.3,0,13.2-5.8,13.4-12.8
						C410.1,250.3,403.6,244.1,396,244.3z M396.3,263.1c-3,0-5.5-1.9-5.6-5.4c-0.2-4,2.3-5.9,6-5.8c3.2,0,5.4,1.7,5.7,5.2
						C402.3,261,399.9,263.1,396.3,263.1z"/>
					<path class="st0" d="M94.4,433.1c-5.9-0.1-9.8,3.6-10.1,9.5c-0.3,6.5,3.3,10.3,10,10.4c6.2,0.1,9.5-3.2,10-8.8
						C104.3,437,100.9,433.2,94.4,433.1z"/>
					<path class="st1" d="M370.4,113.6c-3.7-2.1-8.7-8.7-12.3-2.7c-3.3,5.5,5.8,5.2,8.4,9.9c-2.7,1.8-5.2,3.2-7.5,5
						c-2.8,2.2-2.2,5.9,0.6,5.9c7.4,0.2,14.2-4.4,18.1-9.5C381.9,116.6,373.7,115.4,370.4,113.6z"/>
					<path class="st2" d="M332.7,466.1c-13.7-0.1-27.4-0.1-41.1,0c-2.2,0-5-0.1-4.9,3.3c0.1,3.2,2.7,3.3,5,3.3
						c6.5,0.1,13.1,0,19.6,0c7.2,0,14.4,0,21.6,0c2.3,0,4.9,0,4.9-3.3C337.6,465.9,334.9,466.1,332.7,466.1z"/>
					<path class="st1" d="M97.3,42.7c1.4-3.9-1.5-10.5,6.1-10.3c-3-3.6,0.9-13.5-7.2-11.2c-6,1.7,0.2,8.1,0.4,12.4
						c-0.3,0.2-0.5,0.4-0.8,0.6c-3.4,3.2-12.8,0-11,7.5C86.6,48.4,93.1,40.5,97.3,42.7z"/>
					<path class="st1" d="M337,454.2c-3.9,2.4-12.4-2.8-12.5,4.4c-0.1,7.5,8.4,3.6,12.7,3.6c4.7,0,13.4,3.9,13.5-3.8
						C350.7,451.7,342,456.1,337,454.2z"/>
					<path class="st1" d="M99.8,46c0.7,3.1,0.6,6.6,4.5,7.8c1.3,0.4,2.7-0.1,3.2-1.5c1.4-3.7,0.3-7.1-1.6-10.2
						c-2.9-4.9-5.2-0.1-7.8,0.6C99.9,43,99.5,44.8,99.8,46z"/>
					<path class="st1" d="M98.1,42.7c-0.2,0-0.4,0-0.6,0l0,0c0,0-0.1,0-0.1-0.1v0.1C97.5,42.8,97.8,42.8,98.1,42.7z"/>
					<path class="st1" d="M103.6,32.6C103.7,32.6,103.7,32.6,103.6,32.6C103.7,32.6,103.7,32.6,103.6,32.6L103.6,32.6
						c0.1,0,0.2-0.1,0.2-0.1v-0.1l0,0c-0.2,0-0.3,0-0.5,0C103.5,32.4,103.6,32.5,103.6,32.6C103.7,32.6,103.6,32.6,103.6,32.6z"/>
					<path class="st1" d="M111.6,38c2.7-0.8,7.6-1.1,5.8-5.7c-1.8-4.5-6.1-1.6-9.3-1.2c-1.5,0.2-2.9,0.9-4.3,1.4
						C103.1,38.9,107.1,39.3,111.6,38z"/>
					<path class="st3" d="M332.2,291.7c0.1-6.5-2.1-8.2-8.4-8.2l0,0c-12.2,0-24.3,0.1-36.5,0.1c-17.3,0-34.6,0.1-51.9,0.1
						c-4.2,0-8.5,0-12.7,0c-33.7,0-67.4-0.1-101-0.2l0,0h-0.1c-2.5,0-4.2,0.3-5.4,1.1l-0.1,0.1c-0.1,0.1-0.3,0.2-0.4,0.3
						c-1.6,1.3-2,3.6-1.9,7c0.3,23.9,0.4,47.7,0,71.6c-0.1,6.9,1.9,8.8,8.7,8.7l0,0c16.7-0.2,33.3-0.2,50-0.2s33.4,0.1,50,0.1
						c16.7,0,33.4,0,50,0c8.3,0,16.7,0,25,0s16.7,0.1,25,0.2l0,0c6.9,0.1,9.9-1.1,9.7-8.9C331.8,339.4,331.9,315.5,332.2,291.7z
						 M246.2,315.6c3.6,0,8.3-0.3,8.4,4.5c0,1.8-0.6,2.9-1.6,3.6c-1.7,1.1-4.3,1.1-6.6,1.1c-33,0-66,0-99,0c-3.6,0-8.1,0.3-7.8-4.9
						c0.1-2.2,1.2-3.2,2.7-3.7s3.3-0.5,5-0.5c16.7,0,33.3,0,50,0C213.5,315.6,229.8,315.6,246.2,315.6z M139.4,297.9
						c0.2-2.2,1.3-3.2,2.8-3.6s3.3-0.3,4.9-0.3c21.3-0.1,42.5-0.1,63.8-0.1c3.6,0,8.3-0.3,8.3,4.5c0,1.8-0.7,2.9-1.7,3.6
						c-1.7,1.1-4.4,0.9-6.6,0.9c-10.5,0-20.9,0-31.4,0c0,0,0,0,0,0.1c-10.8,0-21.6,0.1-32.4-0.1
						C143.7,302.9,139.1,303.2,139.4,297.9z M216.3,345.9c0,0,0,0.1,0,0.2c-11.1,0-22.2,0-33.3,0c-2.6,0-5.3,0-7.9,0
						c-8.5,0-17,0-25.4-0.1c-0.6,0-1.2,0-1.8,0.1c-3.7,0.2-8.2,0.6-8.2-4.6c0-2,0.8-3.1,2-3.6c2-1,5.1-0.5,7.4-0.5
						c45.1-0.1,90.2,0,135.3,0c1.6,0,3.3,0,4.9,0.2c2.4,0.3,4.7,1.3,4.8,4c0.1,3.4-2.5,4.4-5.3,4.5c-1.3,0-2.6,0.1-3.9,0.1
						c-3.9,0-7.8-0.1-11.8-0.1C254.2,345.9,235.2,345.9,216.3,345.9z"/>
					<path class="st4" d="M329.9,227.8c-1.4-0.8-3.4-1.1-6.1-1l0,0l0,0c-23.7,0.2-47.5,0.2-71.2,0.1c-9.6,0-19.3,0-28.9,0
						c-17,0-34,0-51,0c-0.8,0-1.6,0-2.5,0c-16.2,0-32.4,0-48.5-0.2l0,0c-6.5-0.1-8.3,1.8-8,8.2c0.5,11.1,0.5,22.2,0,33.3
						c-0.2,5.7,1.8,7.1,7.2,7.1c68-0.2,136-0.2,204.1,0l0,0c5.8,0,7.2-2,7-7.3c-0.4-11.1-0.6-22.3,0.1-33.3
						C332.3,230.8,331.6,228.8,329.9,227.8z"/>
					<path class="st5" d="M356.6,198.8c0.2-11.8-9.1-20.7-22.6-20.7c-36.9-0.1-73.9-0.1-110.8-0.1s-73.9,0-110.8,0.1
						c-13.7,0-22.5,8.6-22.4,20.6c0.2,12,9.3,20.2,22.8,20.2c18.5,0,36.9,0,55.4,0s36.9,0,55.4,0c0,0,0,0,0-0.1l0,0
						c18.3,0,36.6,0,54.9,0s36.6,0,54.9,0C347.1,218.8,356.4,210.6,356.6,198.8z"/>
					<path class="st6" d="M323.1,380L323.1,380c-8.3,0.1-16.7,0.1-25,0.2c-25,0.1-50,0-75,0c-27.8,0-55.5-0.1-83.3,0.1
						c-2.1,0-4.4-0.2-6.7-0.5c-1.7-0.2-3.5-0.4-5.2-0.6c-1.1-0.1-2.3-0.2-3.3-0.2c-1.1,0-2.1,0-3.1,0.1s-1.9,0.3-2.8,0.6
						c-1.3,0.4-2.4,1.1-3.3,2.1c-4.8,5.3-2,15.2-1.6,23.6c0,0.1,0,0.2,0,0.3c0,0.2,0,0.4,0,0.6c0,0.3,0,0.7,0,1
						c0,7.9,3.4,14.2,9.1,17.9c0.6,0.4,1.2,0.7,1.8,1c1.2,0.6,2.5,1.2,3.9,1.6c2.1,0.6,4.4,1,6.8,1.1c1.8,0.1,3.6,0.1,5.4,0.1
						c1.8,0,3.6,0,5.4,0c3.6,0,7.2-0.1,10.8-0.1c50.3,0,100.7,0,151,0c16.4,0,23.7-7.4,23.9-23.9c0,0,0-0.1,0-0.2
						c0-5.5-0.5-11,0.1-16.5l0,0C332.8,381.2,329.7,380,323.1,380z"/>
					<path class="st7" d="M271.2,170c0.9,0,1.9,0,3,0c0.5,0,1.1,0,1.6,0c2.1,0,3.9,0,5.6,0c11.3-0.2,11.7-2.1,14.6-16.6
						c1.8-8.9,3.3-17.9,5.3-26.8c1.4-6.6,2.4-11.2,2.5-14.4c0.1-7.2-4.3-8.2-18.7-11.4c-1.3-0.3-2.5-0.9-3.7-1.2
						c-6-1.5-9.5-0.4-10.7,6.9c-2.5,15.4-6,30.6-9.2,45.9c-1.1,5.5-1.9,9.3-1.9,11.9C259.5,169.2,262.4,169.9,271.2,170z"/>
					<path class="st7" d="M154,166c1.8,5.4,4,3.7,16.9,4c2.6,0,5.2-0.2,7.8,0c4.2,0.5,7,0.1,8.3-1.5s1.3-4.4,0-8.8
						c-3.6-11.8-5.9-24-8.3-36.1c-3-14.8-3.8-19.4-11.1-19.4c-3.3,0-8,1-14.8,2.4c-0.4,0.1-0.8,0.2-1.2,0.2
						c-1.1,0.2-2.1,0.3-3.2,0.4c-0.1,0-0.3,0-0.4,0.1c-5,0.8-7.1,2.7-5.5,8.6c3.4,12.5,5.7,25.3,8.8,38
						C152.5,159.9,153.2,163.6,154,166z"/>
					<path class="st7" d="M233,103.4c-6.4,0.8-12.9,1.5-19.3,2.2c-5.8,0.6-8.4,3.3-7.5,9.6c1.7,12.9,2.7,25.8,4,38.8
						c1.7,16,1.7,16,17.5,16c2.9,0,5.9-0.3,8.8,0.1c7.8,1.1,9.6-2.4,8.7-9.5c-2.1-17.1-4-34.2-5.6-51.3c-0.3-3.2-1.2-5.1-3.2-5.7
						C235.5,103.2,234.4,103.2,233,103.4z"/>
					<path class="st8" d="M161.7,79.5c0.3-0.1,0.5-0.1,0.8-0.2c2.3-0.5,4.1-1.4,4.5-3.6c0.1-0.8,0-1.8-0.3-3.1
						c0.1-6.7-2.2-10.5-10.5-7.5c-0.8,0.3-1.6,0.6-2.4,0.8c-3.3,1-6.6,1.8-10,2.5c-1.8,0.3-3.7,0.7-5.5,0.9c-7.4,1.1-5.1,6-4.6,10.2
						c0.4,3.8,2,5,4.4,5c1.1,0,2.4-0.3,3.8-0.7C148.3,82,155.1,80.8,161.7,79.5z"/>
					<path class="st9" d="M285.7,92.4c1.9,0.4,3.8,0.7,5.7,1.1c7.3,1.5,11,2,12.5,0.4c1.4-1.6,0.5-5.4-1.8-12.6
						c-0.1-0.3-0.1-0.7-0.2-1c-1.9-5-13-7.2-16.3-3.1c-0.1,0.1-0.2,0.2-0.2,0.2c-0.3,0.5-0.7,0.9-1,1.3c-2.8,3.6-6,7.1-7.4,12
						C280,91.3,282.9,91.8,285.7,92.4z"/>
					<path class="st9" d="M208.2,94.3c0.1,0.2,0.1,0.4,0.2,0.7c2.1,6.1,8.3,1.1,13.3,2.7c3.3-4,12.5,3.5,12.5-4.7
						c0-4.8-2.4-14.2-10.8-14.6c-7.2-0.3-15,7.3-15.3,13.8C207.9,93,208,93.6,208.2,94.3z"/>
					<path class="st10" d="M171.2,93.2c0.2-0.5,0.2-1.2-0.2-1.9c-0.1-0.2-0.1-0.3-0.2-0.5c-0.5-0.9-1.2-1.4-2.2-1.3
						c-0.2,0-0.3,0-0.5,0.1c-9.1,2.2-18.1,4.4-27.2,6.7c-1.5,0.4-3.3,1.3-2.3,3.3c0.4,0.9,1.9,1.2,2.3,1.5c10-2.2,19.1-4.1,28.2-6.2
						C170,94.7,170.9,94.1,171.2,93.2z"/>
					<path class="st11" d="M273.1,345.9c3.9,0,7.8,0.1,11.7,0.1c1.3,0,2.6,0,3.9-0.1c2.7-0.1,5.4-1.1,5.3-4.5
						c-0.1-2.7-2.4-3.7-4.8-4c-1.6-0.2-3.3-0.2-4.9-0.2c-45.1,0-90.2,0-135.3,0c-2.3,0-5.4-0.5-7.4,0.5c-1.2,0.6-2,1.6-2,3.6
						c0,5.2,4.4,4.8,8.2,4.6c0.6,0,1.2-0.1,1.8-0.1l0,0c8.5,0,17,0.1,25.4,0.1c2.6,0,5.3,0,7.9,0c11.1,0,22.2,0,33.3,0
						c0-0.1,0-0.1,0-0.2l0,0C235.2,345.9,254.2,345.9,273.1,345.9z"/>
					<path class="st12" d="M254.5,320.1c-0.1-4.8-4.8-4.5-8.4-4.5c-16.3,0-32.7,0-49,0c-16.7,0-33.3,0-50,0c-1.6,0-3.5,0-4.9,0.5
						c-1.5,0.5-2.6,1.5-2.7,3.7c-0.3,5.1,4.3,4.9,7.8,4.9c33,0,66,0,99,0c2.3,0,5,0.1,6.6-1.1C254,323,254.6,321.9,254.5,320.1z"/>
					<path class="st13" d="M179.6,303L179.6,303L179.6,303c10.5-0.1,20.9,0,31.4-0.1c2.2,0,4.9,0.1,6.6-0.9c1-0.6,1.7-1.7,1.7-3.5
						c0-4.8-4.7-4.5-8.3-4.5c-21.3,0-42.5,0-63.8,0.1c-1.6,0-3.4-0.1-4.9,0.3s-2.6,1.4-2.8,3.6c-0.4,5.2,4.3,5,7.7,5
						C158,303.1,168.8,303,179.6,303z"/>
				</g>
			</g>
		</g>
	</g>
</g>
</svg>
